<?xml version="1.0" standalone="no"?>
<!DOCTYPE svg PUBLIC "-//W3C//DTD SVG 20010904//EN"
 "http://www.w3.org/TR/2001/REC-SVG-20010904/DTD/svg10.dtd">
<svg version="1.0" xmlns="http://www.w3.org/2000/svg"
 width="152.000000pt" height="152.000000pt" viewBox="0 0 152.000000 152.000000"
 preserveAspectRatio="xMidYMid meet">
<metadata>
Created by potrace 1.13, written by Peter Selinger 2001-2015
</metadata>
<g transform="translate(0.000000,152.000000) scale(0.100000,-0.100000)"
fill="#000000" stroke="none">
<path d="M727 1399 c-9 -5 -27 -29 -38 -51 -19 -37 -21 -61 -23 -219 -2 -201
-2 -201 -87 -244 -25 -13 -52 -31 -59 -40 -8 -10 -38 -28 -67 -40 -29 -13 -70
-37 -90 -54 -21 -16 -51 -33 -66 -37 -16 -4 -48 -22 -72 -40 -24 -18 -58 -40
-77 -50 -43 -22 -48 -30 -48 -82 0 -42 25 -82 51 -82 7 0 50 13 98 29 47 17
116 37 153 45 37 9 95 27 128 41 34 14 79 25 105 25 40 0 47 -3 56 -27 14 -36
6 -210 -10 -241 -7 -13 -35 -45 -62 -71 -38 -36 -49 -54 -49 -78 0 -47 20 -57
98 -48 102 11 146 8 196 -14 58 -27 82 -26 101 2 25 39 4 90 -58 138 -29 23
-58 53 -66 68 -18 33 -27 206 -12 244 9 24 16 27 56 27 26 0 71 -11 105 -25
33 -14 99 -34 146 -45 48 -11 118 -34 157 -51 55 -25 77 -29 96 -23 58 21 52
121 -9 161 -19 12 -53 35 -75 51 -22 16 -63 37 -91 46 -29 9 -60 26 -70 38
-11 11 -48 36 -84 54 -138 73 -194 113 -217 157 -14 26 -18 68 -23 218 -4 165
-7 189 -24 208 -21 23 -41 26 -69 10z"/>
</g>
</svg>
