<?xml version="1.0" standalone="no"?><!-- Generator: Adobe Fireworks CS6, Export SVG Extension by Aaron Beall (http://fireworks.abeall.com) . Version: 0.6.1  --><!DOCTYPE svg PUBLIC "-//W3C//DTD SVG 1.1//EN" "http://www.w3.org/Graphics/SVG/1.1/DTD/svg11.dtd"><svg id="Untitled-Page%201" viewBox="0 0 16 16" style="background-color:#ffffff00" version="1.1"	xmlns="http://www.w3.org/2000/svg" xmlns:xlink="http://www.w3.org/1999/xlink" xml:space="preserve"	x="0px" y="0px" width="16px" height="16px">	<g id="Layer%201">		<path d="M 0 8 C 0 9 0.9979 9 0.9979 9 L 5.9979 9 C 5.9979 9 9.9936 15.9871 10 16 C 10.6109 16 11.3891 16 12 16 C 11.4631 14.3191 10.0165 9.0575 10 9 C 10.0531 9 12.3546 9.0037 13.4979 9 C 13.5961 8.9997 14.4979 10.5 14.4979 10.5 C 14.4979 10.5 15.6104 10.4988 15.9979 10.5 C 16.0504 10.5002 15.0992 8.3483 14.9979 8 C 14.9826 7.9473 15.9979 5.5194 15.9979 5.5 C 15.5572 5.5016 14.4979 5.5 14.4979 5.5 C 14.4979 5.5 13.5484 6.9946 13.4979 6.9948 C 12.3158 6.9994 10.0317 7.0049 10 7 C 10.1309 6.5903 11.3746 1.9576 12 0 C 11.3891 0 10.6109 0 10 0 C 9.3126 1.1619 5.9979 7 5.9979 7 L 0.9979 7 C 0.9979 7 0 7 0 8 Z" fill="#000000"/>	</g></svg>