<svg xmlns="http://www.w3.org/2000/svg" width="24" height="24" viewBox="10.5 10.5 24 24" enable-background="new 10.5 10.5 24 24"><path fill="#016699" d="M29.78 19.938c-.237 0-.428.192-.428.428v13.277h-17.989v-17.988h13.277c.237 0 .429-.191.429-.428 0-.236-.192-.429-.429-.429h-13.277c-.473 0-.857.384-.857.857v17.988c0 .473.384.857.857.857h17.988c.473 0 .857-.384.857-.857v-13.277c0-.236-.192-.428-.428-.428zm4.46-7.96l-1.223-1.224c-.338-.338-.885-.338-1.223 0l-12.54 12.55-.612 3.062 3.059-.612 11.316-11.326-.612-.612-11.113 11.121-1.121-.102-.102-1.123 11.113-11.122-.611-.612.611-.612 2.447 2.449.612-.612c.336-.338.336-.886-.001-1.225z"/></svg>