<svg style="background-color:#ffffff00" xmlns="http://www.w3.org/2000/svg" width="60" height="30"><g><path opacity=".2" d="M30 25.446c0 2.515-2.039 4.554-4.554 4.554h-20.893c-2.515 0-4.554-2.039-4.554-4.554v-20.893c0-2.515 2.039-4.554 4.554-4.554h20.893c2.515 0 4.554 2.039 4.554 4.554v20.893z" fill="#333"/><path d="M26 22.661c0 1.844-1.495 3.339-3.339 3.339h-15.321c-1.844 0-3.339-1.495-3.339-3.339v-15.321c0-1.844 1.495-3.339 3.339-3.339h15.321c1.844 0 3.339 1.495 3.339 3.339v15.321z" fill="#333"/><path d="M11 16l3.953 3 4.047-3v-2l-4.047 2-3.953-2v2zm0-4l3.953 3 4.047-3v-2l-4.047 2-3.953-2v2z" fill="#fff"/><path opacity=".2" d="M30 4.554c0-2.515 2.039-4.554 4.554-4.554h20.893c2.515 0 4.554 2.039 4.554 4.554v20.893c0 2.515-2.039 4.554-4.554 4.554h-20.893c-2.515 0-4.554-2.039-4.554-4.554v-20.893z" fill="#333"/><path d="M34 7.339c0-1.844 1.495-3.339 3.339-3.339h15.322c1.844 0 3.339 1.495 3.339 3.339v15.321c0 1.844-1.495 3.339-3.339 3.339h-15.322c-1.844 0-3.339-1.495-3.339-3.339v-15.321z" fill="#333"/><path d="M49 13l-3.953-3-4.047 3v2l4.047-2 3.953 2v-2zm0 4l-3.953-3-4.047 3v2l4.047-2 3.953 2v-2z" fill="#fff"/></g></svg>