<svg xmlns="http://www.w3.org/2000/svg" viewBox="0 0 32 20" preserveAspectRatio="xMinYMin" enable-background="new 0 0 32 20"><rect width="32" height="20"/><polygon fill="#fff" points="5.9,4 7,7.3 10.3,7.3 7.5,8.9 8.6,12.8 5.9,10 3.1,12.8 4.2,8.9 1.5,7.3 4.8,7.3"/><polygon fill="#fff" points="15.9,4 17,7.3 20.3,7.3 17.5,8.9 18.6,12.8 15.9,10 13.1,12.8 14.2,8.9 11.5,7.3 14.8,7.3"/><polygon fill="#fff" points="25.9,4 27,7.3 30.3,7.3 27.5,8.9 28.6,12.8 25.9,10 23.1,12.8 24.2,8.9 21.5,7.3 24.8,7.3"/></svg>