<?xml version="1.0" encoding="utf-8"?>
<!-- Generator: Adobe Illustrator 18.0.0, SVG Export Plug-In . SVG Version: 6.00 Build 0)  -->
<!DOCTYPE svg PUBLIC "-//W3C//DTD SVG 1.1//EN" "http://www.w3.org/Graphics/SVG/1.1/DTD/svg11.dtd">
<svg version="1.1" id="Layer_1" xmlns="http://www.w3.org/2000/svg" xmlns:xlink="http://www.w3.org/1999/xlink" x="0px" y="0px"
	 width="32px" height="32px" viewBox="0 0 32 32" enable-background="new 0 0 32 32" xml:space="preserve">
<path fill="#009900" d="M0,18h4.645c0,0,1.955-0.305,2.848-1.14c0.889-0.832,1.951-3.752,3.402-5.366
	c1.448-1.611,4.182-4.669,4.517-6.837c0.336-2.166-0.391-4.942,2.342-4.667c0,0,5.686,2.561,0.891,11.941
	c0,0-0.585,0.89,0.505,0.898c1.671,0.013,5.799-0.011,6.134-0.011c0,0,4.239-0.709,4.741,2.627c0.5,3.336-2.122,3.279-2.122,3.279
	s2.569,1.498,0,4.055c0,0,2.064,2.89-0.89,4.39c0,0,0.668,3.704-2.455,3.981c-3.124,0.276-7.754,1.632-10.989,0.076
	C10.335,29.671,10.112,30,8.772,30C7.435,30,0,30,0,30V18z"/>
</svg>
